<?xml version="1.0" ?><svg id="Icon" viewBox="0 0 64 64" xmlns="http://www.w3.org/2000/svg" xmlns:xlink="http://www.w3.org/1999/xlink"><defs><style>.cls-1{fill:url(#linear-gradient);}.cls-2{fill:url(#linear-gradient-2);}.cls-3{fill:url(#linear-gradient-3);}.cls-4{fill:url(#linear-gradient-4);}.cls-5{fill:url(#linear-gradient-5);}.cls-6{fill:url(#linear-gradient-6);}.cls-7{fill:#b0bec5;}</style><linearGradient gradientUnits="userSpaceOnUse" id="linear-gradient" x1="32" x2="32" y1="21.465" y2="52.898"><stop offset="0" stop-color="#616261"/><stop offset="1" stop-color="#212121"/></linearGradient><linearGradient gradientUnits="userSpaceOnUse" id="linear-gradient-2" x1="21.436" x2="41.475" y1="35.48" y2="35.48"><stop offset="0" stop-color="#95c8ec"/><stop offset="1" stop-color="#57a0d7"/></linearGradient><linearGradient id="linear-gradient-3" x1="32" x2="32" xlink:href="#linear-gradient" y1="7.921" y2="22.904"/><linearGradient id="linear-gradient-4" x1="12.97" x2="12.97" xlink:href="#linear-gradient" y1="7.921" y2="22.904"/><linearGradient gradientUnits="userSpaceOnUse" id="linear-gradient-5" x1="32" x2="32" y1="40.624" y2="58.33"><stop offset="0" stop-color="#cfd8dc"/><stop offset="1" stop-color="#90a4ae"/></linearGradient><linearGradient gradientUnits="userSpaceOnUse" id="linear-gradient-6" x1="32" x2="32" y1="14.871" y2="56.163"><stop offset="0" stop-color="#edeff0"/><stop offset="1" stop-color="#b0bec5"/></linearGradient></defs><circle class="cls-1" cx="32" cy="35.48" r="13"/><circle class="cls-2" cx="32" cy="35.48" r="9"/><path class="cls-3" d="M42.911,17.114H21.089L22.673,11.6A2,2,0,0,1,24.6,10.153h14.81A2,2,0,0,1,41.327,11.6Z"/><path class="cls-4" d="M10.069,12.114h5.8a2,2,0,0,1,2,2v3a0,0,0,0,1,0,0h-9.8a0,0,0,0,1,0,0v-3A2,2,0,0,1,10.069,12.114Z"/><path class="cls-5" d="M41.367,44.48a12.968,12.968,0,0,1-18.734,0H5v7.367a2,2,0,0,0,2,2H57a2,2,0,0,0,2-2V44.48Z"/><path class="cls-6" d="M57,17.114H7a2,2,0,0,0-2,2V44.48H22.633a13,13,0,1,1,18.734,0H59V19.114A2,2,0,0,0,57,17.114Z"/><circle class="cls-7" cx="50.396" cy="23.48" r="2"/></svg>