<?xml version="1.0" encoding="iso-8859-1"?>
<!-- Generator: Adobe Illustrator 16.0.0, SVG Export Plug-In . SVG Version: 6.00 Build 0)  -->
<!DOCTYPE svg PUBLIC "-//W3C//DTD SVG 1.1//EN" "http://www.w3.org/Graphics/SVG/1.1/DTD/svg11.dtd">
<svg version="1.1" id="Capa_1" xmlns="http://www.w3.org/2000/svg" xmlns:xlink="http://www.w3.org/1999/xlink" x="0px" y="0px"
	 width="106.048px" height="106.048px" viewBox="0 0 106.048 106.048" style="enable-background:new 0 0 106.048 106.048;"
	 xml:space="preserve">
<g>
	<path style="fill:#010002;" d="M84.838,0H21.209C9.543,0,0,9.543,0,21.209v63.629c0,11.666,9.543,21.21,21.209,21.21h63.628
		c11.667,0,21.21-9.544,21.21-21.21V21.209C106.048,9.543,96.505,0,84.838,0z M62.811,13.256l14.261,3.674l-1.149,10.812H62.8
		H49.679L48.532,16.93L62.811,13.256z M76.646,34.105c0,7.646-6.193,13.833-13.825,13.833h-0.011c-0.016,0-0.016,0-0.025,0
		c-7.628,0-13.823-6.188-13.823-13.833c0-1.481,0.298-2.89,0.722-4.223h13.127h13.121C76.356,31.216,76.646,32.619,76.646,34.105z
		 M80.064,92.792l-1.968-20.345l-0.643,20.345H48.167c0,0-0.445-23.292-0.487-23.872L23.325,91.383
		c-0.779,0.777-1.807,1.171-2.83,1.171c-1.021,0-2.043-0.389-2.822-1.171c-1.564-1.563-1.564-4.096,0-5.659
		c0,0,25.59-30.758,32.498-32.933c3.987-1.259,6.633-1.613,11.324-1.613h1.315h1.347c12.898,0,18.154,4.223,21.551,11.156
		c0.994,2.04,2.626,17.771,3.843,30.458H80.064z M71.986,53.055c2.2,0.445,4.023,1.113,5.576,1.947L56.535,92.605h-6.662
		L71.986,53.055z"/>
</g>
<g>
</g>
<g>
</g>
<g>
</g>
<g>
</g>
<g>
</g>
<g>
</g>
<g>
</g>
<g>
</g>
<g>
</g>
<g>
</g>
<g>
</g>
<g>
</g>
<g>
</g>
<g>
</g>
<g>
</g>
</svg>
